            <svg width="100%" height="100%" viewBox="0 0 1196 191" fill="none"
                xmlns="http://www.w3.org/2000/svg">
                <path d="M0 153.792C226.908 76.2714 786.968 -55.6513 1196 25.8142V190.259H0V153.792Z"
                    fill="url(#paint0_linear_1_316)" />
                <path d="M1196 153.614C969.092 76.0933 409.032 -55.8294 0 25.6361V190.081H1196V153.614Z"
                    fill="url(#paint1_linear_1_316)" />
                <g filter="url(#filter0_d_1_316)">
                    <path
                        d="M494.848 147.344C494.437 147.736 493.896 148.1 493.224 148.436C492.552 148.753 491.787 148.903 490.928 148.884C489.976 148.865 489.108 148.613 488.324 148.128C487.559 147.643 486.952 147.008 486.504 146.224C486.075 145.421 485.86 144.553 485.86 143.62C485.86 142.575 486.075 141.651 486.504 140.848C486.952 140.045 487.577 139.411 488.38 138.944C489.183 138.477 490.107 138.244 491.152 138.244C491.525 138.244 491.908 138.281 492.3 138.356C492.692 138.412 493.075 138.515 493.448 138.664C493.84 138.795 494.167 138.981 494.428 139.224L493.392 141.212C493.093 140.951 492.767 140.773 492.412 140.68C492.076 140.587 491.721 140.54 491.348 140.54C490.807 140.54 490.321 140.68 489.892 140.96C489.481 141.24 489.155 141.604 488.912 142.052C488.669 142.5 488.548 142.995 488.548 143.536C488.548 144.077 488.66 144.572 488.884 145.02C489.127 145.468 489.453 145.832 489.864 146.112C490.293 146.392 490.788 146.532 491.348 146.532C491.759 146.532 492.16 146.457 492.552 146.308C492.963 146.14 493.327 145.888 493.644 145.552L494.848 147.344ZM490.844 153.028C489.537 153.028 488.305 152.795 487.148 152.328C486.009 151.861 485.001 151.208 484.124 150.368C483.247 149.509 482.556 148.511 482.052 147.372C481.567 146.233 481.324 144.992 481.324 143.648C481.324 142.285 481.567 141.035 482.052 139.896C482.556 138.739 483.247 137.74 484.124 136.9C485.001 136.06 486.009 135.407 487.148 134.94C488.305 134.473 489.547 134.24 490.872 134.24C492.179 134.24 493.401 134.473 494.54 134.94C495.697 135.407 496.715 136.06 497.592 136.9C498.469 137.74 499.151 138.739 499.636 139.896C500.14 141.035 500.392 142.285 500.392 143.648C500.392 144.992 500.149 146.233 499.664 147.372C499.179 148.511 498.497 149.509 497.62 150.368C496.761 151.208 495.753 151.861 494.596 152.328C493.457 152.795 492.207 153.028 490.844 153.028ZM490.844 150.9C492.207 150.9 493.429 150.592 494.512 149.976C495.613 149.341 496.481 148.473 497.116 147.372C497.769 146.271 498.096 145.039 498.096 143.676C498.096 142.239 497.769 140.979 497.116 139.896C496.481 138.795 495.613 137.927 494.512 137.292C493.429 136.657 492.207 136.34 490.844 136.34C489.5 136.34 488.277 136.657 487.176 137.292C486.075 137.927 485.197 138.795 484.544 139.896C483.909 140.997 483.592 142.257 483.592 143.676C483.592 145.057 483.891 146.299 484.488 147.4C485.104 148.483 485.953 149.341 487.036 149.976C488.137 150.592 489.407 150.9 490.844 150.9ZM514.478 153V132.112H514.506L525.118 147.176L523.97 146.952L534.554 132.112H534.61V153H531.922V138.272L532.09 139.644L524.446 150.452H524.39L516.634 139.644L517.11 138.384V153H514.478ZM539.784 141.408H542.388V153H539.784V141.408ZM539.588 137.208C539.588 136.797 539.746 136.452 540.064 136.172C540.4 135.892 540.764 135.752 541.156 135.752C541.548 135.752 541.893 135.892 542.192 136.172C542.509 136.452 542.668 136.797 542.668 137.208C542.668 137.637 542.509 137.992 542.192 138.272C541.893 138.533 541.548 138.664 541.156 138.664C540.764 138.664 540.4 138.524 540.064 138.244C539.746 137.964 539.588 137.619 539.588 137.208ZM549.217 141.408L549.441 144.236L549.329 143.788C549.702 142.929 550.309 142.248 551.149 141.744C551.989 141.221 552.96 140.96 554.061 140.96C555.162 140.96 556.058 141.287 556.749 141.94C557.458 142.575 557.822 143.405 557.841 144.432V153H555.209V145.356C555.19 144.721 555.004 144.208 554.649 143.816C554.313 143.405 553.781 143.2 553.053 143.2C552.381 143.2 551.774 143.387 551.233 143.76C550.692 144.133 550.262 144.647 549.945 145.3C549.646 145.953 549.497 146.709 549.497 147.568V153H546.893V141.408H549.217ZM567.074 153.28C566.01 153.28 565.039 153.028 564.162 152.524C563.303 152.001 562.622 151.273 562.118 150.34C561.614 149.388 561.362 148.296 561.362 147.064C561.362 145.776 561.623 144.675 562.146 143.76C562.687 142.845 563.415 142.145 564.33 141.66C565.244 141.175 566.271 140.932 567.41 140.932C568.324 140.932 569.192 141.128 570.014 141.52C570.854 141.912 571.507 142.453 571.974 143.144L571.862 144.068V131.328H574.438V153H571.834V150.116L572.114 150.844C571.572 151.553 570.872 152.141 570.014 152.608C569.155 153.056 568.175 153.28 567.074 153.28ZM567.886 151.068C568.576 151.068 569.192 150.947 569.734 150.704C570.275 150.443 570.723 150.088 571.078 149.64C571.432 149.192 571.684 148.66 571.834 148.044V145.86C571.684 145.3 571.414 144.815 571.022 144.404C570.648 143.975 570.191 143.639 569.65 143.396C569.127 143.135 568.539 143.004 567.886 143.004C567.176 143.004 566.523 143.181 565.926 143.536C565.347 143.872 564.88 144.339 564.526 144.936C564.171 145.533 563.994 146.224 563.994 147.008C563.994 147.773 564.171 148.464 564.526 149.08C564.88 149.677 565.356 150.163 565.954 150.536C566.551 150.891 567.195 151.068 567.886 151.068ZM585.015 132.756C586.49 132.756 587.75 133.008 588.795 133.512C589.841 133.997 590.643 134.707 591.203 135.64C591.782 136.573 592.071 137.703 592.071 139.028C592.071 139.831 591.95 140.624 591.707 141.408C591.465 142.173 591.073 142.873 590.531 143.508C590.009 144.124 589.318 144.619 588.459 144.992C587.601 145.365 586.555 145.552 585.323 145.552H582.327V153H579.611V132.756H585.015ZM585.295 142.948C586.098 142.948 586.761 142.817 587.283 142.556C587.806 142.295 588.217 141.968 588.515 141.576C588.814 141.165 589.029 140.736 589.159 140.288C589.29 139.84 589.355 139.439 589.355 139.084C589.355 138.673 589.29 138.253 589.159 137.824C589.029 137.376 588.805 136.975 588.487 136.62C588.189 136.247 587.787 135.948 587.283 135.724C586.798 135.481 586.191 135.36 585.463 135.36H582.327V142.948H585.295ZM595.62 131.328H598.224V153H595.62V131.328ZM607.545 153.28C606.462 153.28 605.473 153.047 604.577 152.58C603.7 152.113 603 151.432 602.477 150.536C601.973 149.621 601.721 148.511 601.721 147.204C601.721 145.916 601.992 144.805 602.533 143.872C603.074 142.92 603.793 142.192 604.689 141.688C605.604 141.184 606.602 140.932 607.685 140.932C608.768 140.932 609.682 141.184 610.429 141.688C611.176 142.173 611.745 142.752 612.137 143.424L611.969 143.872L612.221 141.408H614.629V153H612.025V149.976L612.305 150.648C612.23 150.835 612.062 151.077 611.801 151.376C611.558 151.656 611.222 151.945 610.793 152.244C610.382 152.543 609.906 152.795 609.365 153C608.824 153.187 608.217 153.28 607.545 153.28ZM608.245 151.124C608.898 151.124 609.486 151.003 610.009 150.76C610.532 150.517 610.961 150.181 611.297 149.752C611.652 149.304 611.894 148.772 612.025 148.156V145.888C611.876 145.328 611.614 144.843 611.241 144.432C610.868 144.003 610.42 143.676 609.897 143.452C609.374 143.209 608.796 143.088 608.161 143.088C607.47 143.088 606.836 143.256 606.257 143.592C605.678 143.928 605.212 144.395 604.857 144.992C604.521 145.589 604.353 146.289 604.353 147.092C604.353 147.839 604.53 148.52 604.885 149.136C605.24 149.752 605.716 150.237 606.313 150.592C606.91 150.947 607.554 151.124 608.245 151.124ZM628.543 151.936C628.021 152.347 627.395 152.673 626.667 152.916C625.939 153.159 625.211 153.28 624.483 153.28C623.214 153.28 622.103 153.028 621.151 152.524C620.199 152.02 619.453 151.32 618.911 150.424C618.389 149.509 618.127 148.436 618.127 147.204C618.127 145.972 618.407 144.899 618.967 143.984C619.546 143.069 620.293 142.369 621.207 141.884C622.141 141.38 623.139 141.128 624.203 141.128C625.137 141.128 625.967 141.259 626.695 141.52C627.442 141.781 628.077 142.136 628.599 142.584L627.311 144.264C626.975 144.003 626.565 143.769 626.079 143.564C625.594 143.359 625.043 143.256 624.427 143.256C623.755 143.256 623.13 143.433 622.551 143.788C621.991 144.124 621.543 144.591 621.207 145.188C620.89 145.785 620.731 146.457 620.731 147.204C620.731 147.913 620.899 148.576 621.235 149.192C621.571 149.789 622.038 150.265 622.635 150.62C623.233 150.956 623.914 151.124 624.679 151.124C625.183 151.124 625.641 151.049 626.051 150.9C626.481 150.751 626.863 150.545 627.199 150.284L628.543 151.936ZM637.281 153.28C635.955 153.28 634.817 153.019 633.865 152.496C632.913 151.955 632.175 151.227 631.653 150.312C631.149 149.379 630.897 148.315 630.897 147.12C630.897 145.981 631.186 144.945 631.765 144.012C632.343 143.079 633.118 142.332 634.089 141.772C635.059 141.212 636.142 140.932 637.337 140.932C638.867 140.932 640.137 141.38 641.145 142.276C642.153 143.172 642.834 144.404 643.189 145.972L633.641 149.332L633.025 147.792L640.865 144.936L640.305 145.3C640.081 144.684 639.707 144.152 639.185 143.704C638.662 143.237 637.981 143.004 637.141 143.004C636.431 143.004 635.797 143.181 635.237 143.536C634.677 143.872 634.238 144.339 633.921 144.936C633.603 145.533 633.445 146.215 633.445 146.98C633.445 147.783 633.613 148.492 633.949 149.108C634.285 149.705 634.742 150.181 635.321 150.536C635.918 150.872 636.59 151.04 637.337 151.04C637.841 151.04 638.326 150.947 638.793 150.76C639.278 150.573 639.726 150.331 640.137 150.032L641.341 151.964C640.762 152.356 640.109 152.673 639.381 152.916C638.671 153.159 637.971 153.28 637.281 153.28ZM654.527 153C655.722 151.843 656.86 150.704 657.943 149.584C659.026 148.464 659.996 147.381 660.855 146.336C661.732 145.291 662.423 144.283 662.927 143.312C663.431 142.323 663.683 141.371 663.683 140.456C663.683 139.84 663.58 139.317 663.375 138.888C663.17 138.44 662.899 138.076 662.563 137.796C662.246 137.516 661.882 137.311 661.471 137.18C661.06 137.031 660.64 136.956 660.211 136.956C659.595 136.956 659.072 137.059 658.643 137.264C658.214 137.451 657.859 137.703 657.579 138.02C657.318 138.337 657.122 138.673 656.991 139.028C656.879 139.383 656.823 139.737 656.823 140.092C656.823 140.708 656.916 141.268 657.103 141.772C657.29 142.257 657.56 142.687 657.915 143.06L656.235 144.544C655.806 144.264 655.432 143.872 655.115 143.368C654.816 142.864 654.583 142.323 654.415 141.744C654.266 141.147 654.191 140.615 654.191 140.148C654.191 139.14 654.434 138.197 654.919 137.32C655.423 136.424 656.151 135.705 657.103 135.164C658.074 134.623 659.25 134.352 660.631 134.352C661.807 134.352 662.834 134.623 663.711 135.164C664.588 135.705 665.27 136.424 665.755 137.32C666.24 138.197 666.483 139.168 666.483 140.232C666.483 141.165 666.296 142.08 665.923 142.976C665.55 143.872 665.046 144.759 664.411 145.636C663.795 146.513 663.104 147.381 662.339 148.24C661.592 149.08 660.846 149.929 660.099 150.788L658.923 150.396H667.099V153H654.527ZM677.037 153.084C675.898 153.084 674.853 152.869 673.901 152.44C672.949 152.011 672.127 151.395 671.437 150.592C670.765 149.771 670.242 148.781 669.869 147.624C669.495 146.467 669.309 145.169 669.309 143.732C669.309 142.164 669.486 140.801 669.841 139.644C670.195 138.468 670.709 137.488 671.381 136.704C672.071 135.92 672.893 135.341 673.845 134.968C674.797 134.576 675.861 134.38 677.037 134.38C678.175 134.38 679.211 134.595 680.145 135.024C681.097 135.453 681.909 136.079 682.581 136.9C683.271 137.703 683.803 138.683 684.177 139.84C684.569 140.979 684.765 142.276 684.765 143.732C684.765 145.207 684.569 146.523 684.177 147.68C683.803 148.837 683.271 149.817 682.581 150.62C681.909 151.423 681.097 152.039 680.145 152.468C679.211 152.879 678.175 153.084 677.037 153.084ZM677.009 150.48C678.091 150.48 678.997 150.2 679.725 149.64C680.471 149.061 681.031 148.259 681.405 147.232C681.778 146.205 681.965 145.02 681.965 143.676C681.965 142.332 681.778 141.165 681.405 140.176C681.031 139.168 680.471 138.384 679.725 137.824C678.997 137.264 678.091 136.984 677.009 136.984C675.926 136.984 675.021 137.273 674.293 137.852C673.565 138.412 673.014 139.196 672.641 140.204C672.286 141.212 672.109 142.388 672.109 143.732C672.109 145.057 672.286 146.233 672.641 147.26C673.014 148.268 673.565 149.061 674.293 149.64C675.021 150.2 675.926 150.48 677.009 150.48ZM687.23 153C688.425 151.843 689.563 150.704 690.646 149.584C691.729 148.464 692.699 147.381 693.558 146.336C694.435 145.291 695.126 144.283 695.63 143.312C696.134 142.323 696.386 141.371 696.386 140.456C696.386 139.84 696.283 139.317 696.078 138.888C695.873 138.44 695.602 138.076 695.266 137.796C694.949 137.516 694.585 137.311 694.174 137.18C693.763 137.031 693.343 136.956 692.914 136.956C692.298 136.956 691.775 137.059 691.346 137.264C690.917 137.451 690.562 137.703 690.282 138.02C690.021 138.337 689.825 138.673 689.694 139.028C689.582 139.383 689.526 139.737 689.526 140.092C689.526 140.708 689.619 141.268 689.806 141.772C689.993 142.257 690.263 142.687 690.618 143.06L688.938 144.544C688.509 144.264 688.135 143.872 687.818 143.368C687.519 142.864 687.286 142.323 687.118 141.744C686.969 141.147 686.894 140.615 686.894 140.148C686.894 139.14 687.137 138.197 687.622 137.32C688.126 136.424 688.854 135.705 689.806 135.164C690.777 134.623 691.953 134.352 693.334 134.352C694.51 134.352 695.537 134.623 696.414 135.164C697.291 135.705 697.973 136.424 698.458 137.32C698.943 138.197 699.186 139.168 699.186 140.232C699.186 141.165 698.999 142.08 698.626 142.976C698.253 143.872 697.749 144.759 697.114 145.636C696.498 146.513 695.807 147.381 695.042 148.24C694.295 149.08 693.549 149.929 692.802 150.788L691.626 150.396H699.802V153H687.23ZM707.864 153.224C706.875 153.224 705.923 153.047 705.008 152.692C704.112 152.337 703.384 151.88 702.824 151.32L704.28 149.22C704.653 149.649 705.148 149.995 705.764 150.256C706.399 150.517 707.024 150.648 707.64 150.648C708.331 150.648 708.937 150.499 709.46 150.2C710.001 149.883 710.421 149.463 710.72 148.94C711.019 148.399 711.168 147.783 711.168 147.092C711.168 146.345 711.028 145.683 710.748 145.104C710.487 144.525 710.085 144.077 709.544 143.76C709.021 143.424 708.359 143.256 707.556 143.256C706.903 143.256 706.296 143.349 705.736 143.536C705.176 143.704 704.597 143.965 704 144.32H703.972V134.576H712.792V137.18H706.324V141.884L705.96 141.324C706.277 141.212 706.632 141.128 707.024 141.072C707.435 140.997 707.827 140.96 708.2 140.96C709.451 140.96 710.496 141.24 711.336 141.8C712.195 142.341 712.839 143.069 713.268 143.984C713.716 144.899 713.94 145.907 713.94 147.008C713.94 148.165 713.679 149.22 713.156 150.172C712.633 151.105 711.915 151.852 711 152.412C710.085 152.953 709.04 153.224 707.864 153.224Z"
                        fill="white" />
                </g>
                <g filter="url(#filter1_d_1_316)">
                    <path
                        d="M447.944 76.424H450.176V95H447.944V76.424ZM453.174 89.936C453.174 88.944 453.406 88.048 453.87 87.248C454.35 86.448 455.006 85.816 455.838 85.352C456.67 84.888 457.614 84.656 458.67 84.656C459.758 84.656 460.71 84.888 461.526 85.352C462.342 85.816 462.974 86.448 463.422 87.248C463.87 88.048 464.094 88.944 464.094 89.936C464.094 90.928 463.87 91.832 463.422 92.648C462.974 93.448 462.334 94.08 461.502 94.544C460.686 95.008 459.734 95.24 458.646 95.24C457.59 95.24 456.646 95.024 455.814 94.592C454.998 94.144 454.35 93.528 453.87 92.744C453.406 91.944 453.174 91.008 453.174 89.936ZM455.406 89.96C455.406 90.6 455.55 91.184 455.838 91.712C456.126 92.224 456.51 92.632 456.99 92.936C457.486 93.24 458.03 93.392 458.622 93.392C459.246 93.392 459.798 93.24 460.278 92.936C460.774 92.632 461.158 92.224 461.43 91.712C461.702 91.184 461.838 90.6 461.838 89.96C461.838 89.32 461.702 88.744 461.43 88.232C461.158 87.704 460.774 87.288 460.278 86.984C459.798 86.664 459.246 86.504 458.622 86.504C458.014 86.504 457.462 86.664 456.966 86.984C456.486 87.304 456.102 87.728 455.814 88.256C455.542 88.768 455.406 89.336 455.406 89.96ZM470.843 95.288L465.323 85.064H467.963L471.707 92.96L470.339 92.912L473.771 85.064H476.267L470.963 95.288H470.843ZM483.044 95.24C481.908 95.24 480.932 95.016 480.116 94.568C479.3 94.104 478.668 93.48 478.22 92.696C477.788 91.896 477.572 90.984 477.572 89.96C477.572 88.984 477.82 88.096 478.316 87.296C478.812 86.496 479.476 85.856 480.308 85.376C481.14 84.896 482.068 84.656 483.092 84.656C484.404 84.656 485.492 85.04 486.356 85.808C487.22 86.576 487.804 87.632 488.108 88.976L479.924 91.856L479.396 90.536L486.116 88.088L485.636 88.4C485.444 87.872 485.124 87.416 484.676 87.032C484.228 86.632 483.644 86.432 482.924 86.432C482.316 86.432 481.772 86.584 481.292 86.888C480.812 87.176 480.436 87.576 480.164 88.088C479.892 88.6 479.756 89.184 479.756 89.84C479.756 90.528 479.9 91.136 480.188 91.664C480.476 92.176 480.868 92.584 481.364 92.888C481.876 93.176 482.452 93.32 483.092 93.32C483.524 93.32 483.94 93.24 484.34 93.08C484.756 92.92 485.14 92.712 485.492 92.456L486.524 94.112C486.028 94.448 485.468 94.72 484.844 94.928C484.236 95.136 483.636 95.24 483.044 95.24ZM499.339 99.776L505.891 85.064H507.955L501.547 99.776H499.339ZM501.787 95.072L497.011 85.064H499.531L503.539 93.944L501.787 95.072ZM509.189 89.936C509.189 88.944 509.421 88.048 509.885 87.248C510.365 86.448 511.021 85.816 511.853 85.352C512.685 84.888 513.629 84.656 514.685 84.656C515.773 84.656 516.725 84.888 517.541 85.352C518.357 85.816 518.989 86.448 519.437 87.248C519.885 88.048 520.109 88.944 520.109 89.936C520.109 90.928 519.885 91.832 519.437 92.648C518.989 93.448 518.349 94.08 517.517 94.544C516.701 95.008 515.749 95.24 514.661 95.24C513.605 95.24 512.661 95.024 511.829 94.592C511.013 94.144 510.365 93.528 509.885 92.744C509.421 91.944 509.189 91.008 509.189 89.936ZM511.421 89.96C511.421 90.6 511.565 91.184 511.853 91.712C512.141 92.224 512.525 92.632 513.005 92.936C513.501 93.24 514.045 93.392 514.637 93.392C515.261 93.392 515.813 93.24 516.293 92.936C516.789 92.632 517.173 92.224 517.445 91.712C517.717 91.184 517.853 90.6 517.853 89.96C517.853 89.32 517.717 88.744 517.445 88.232C517.173 87.704 516.789 87.288 516.293 86.984C515.813 86.664 515.261 86.504 514.637 86.504C514.029 86.504 513.477 86.664 512.981 86.984C512.501 87.304 512.117 87.728 511.829 88.256C511.557 88.768 511.421 89.336 511.421 89.96ZM526.276 95.384C525.38 95.384 524.636 95.112 524.044 94.568C523.468 94.008 523.164 93.288 523.132 92.408V85.064H525.364V91.616C525.396 92.16 525.548 92.6 525.82 92.936C526.108 93.272 526.556 93.448 527.164 93.464C527.724 93.464 528.22 93.304 528.652 92.984C529.1 92.648 529.46 92.2 529.732 91.64C530.004 91.064 530.14 90.416 530.14 89.696V85.064H532.372V95H530.332L530.14 92.552L530.26 92.984C530.068 93.448 529.772 93.864 529.372 94.232C528.988 94.584 528.532 94.864 528.004 95.072C527.476 95.28 526.9 95.384 526.276 95.384ZM538.225 85.064L538.441 87.944L538.321 87.56C538.577 86.952 538.945 86.44 539.425 86.024C539.921 85.592 540.433 85.264 540.961 85.04C541.505 84.8 541.977 84.68 542.377 84.68L542.257 86.888C541.505 86.84 540.841 86.984 540.265 87.32C539.705 87.656 539.257 88.104 538.921 88.664C538.601 89.224 538.441 89.824 538.441 90.464V95H536.233V85.064H538.225ZM548.041 95.192C547.337 95.192 546.649 95.072 545.977 94.832C545.321 94.576 544.777 94.2 544.345 93.704L545.281 92.408C545.697 92.808 546.121 93.112 546.553 93.32C547.001 93.512 547.441 93.608 547.873 93.608C548.193 93.608 548.489 93.568 548.761 93.488C549.033 93.408 549.249 93.28 549.409 93.104C549.585 92.912 549.673 92.656 549.673 92.336C549.673 91.984 549.553 91.704 549.312 91.496C549.089 91.288 548.793 91.12 548.425 90.992C548.073 90.864 547.697 90.744 547.297 90.632C546.481 90.36 545.857 89.984 545.425 89.504C544.993 89.024 544.777 88.44 544.777 87.752C544.777 87.224 544.905 86.736 545.161 86.288C545.433 85.824 545.825 85.448 546.337 85.16C546.865 84.872 547.513 84.728 548.281 84.728C548.969 84.728 549.585 84.816 550.129 84.992C550.673 85.152 551.185 85.424 551.665 85.808L550.777 87.2C550.489 86.896 550.145 86.672 549.745 86.528C549.345 86.384 548.985 86.304 548.665 86.288C548.393 86.272 548.129 86.312 547.873 86.408C547.633 86.504 547.433 86.64 547.273 86.816C547.113 86.992 547.033 87.2 547.033 87.44C547.033 87.776 547.145 88.048 547.369 88.256C547.593 88.464 547.881 88.632 548.233 88.76C548.601 88.872 548.961 88.992 549.312 89.12C549.809 89.264 550.249 89.456 550.633 89.696C551.017 89.936 551.321 90.232 551.545 90.584C551.785 90.936 551.905 91.376 551.905 91.904C551.905 92.496 551.761 93.048 551.473 93.56C551.201 94.056 550.777 94.456 550.201 94.76C549.641 95.048 548.921 95.192 548.041 95.192ZM559.638 95.24C558.502 95.24 557.526 95.016 556.71 94.568C555.894 94.104 555.262 93.48 554.814 92.696C554.382 91.896 554.166 90.984 554.166 89.96C554.166 88.984 554.414 88.096 554.91 87.296C555.406 86.496 556.07 85.856 556.902 85.376C557.734 84.896 558.662 84.656 559.686 84.656C560.998 84.656 562.086 85.04 562.95 85.808C563.814 86.576 564.398 87.632 564.702 88.976L556.518 91.856L555.99 90.536L562.71 88.088L562.23 88.4C562.038 87.872 561.718 87.416 561.27 87.032C560.822 86.632 560.238 86.432 559.518 86.432C558.91 86.432 558.366 86.584 557.886 86.888C557.406 87.176 557.03 87.576 556.758 88.088C556.486 88.6 556.35 89.184 556.35 89.84C556.35 90.528 556.494 91.136 556.782 91.664C557.07 92.176 557.462 92.584 557.958 92.888C558.47 93.176 559.046 93.32 559.686 93.32C560.118 93.32 560.534 93.24 560.934 93.08C561.35 92.92 561.734 92.712 562.086 92.456L563.118 94.112C562.622 94.448 562.062 94.72 561.438 94.928C560.83 95.136 560.23 95.24 559.638 95.24ZM567.499 76.424H569.731V95H567.499V76.424ZM574.408 95V87.056H572.704V85.064H574.408V80.864C574.408 79.424 574.728 78.32 575.368 77.552C576.024 76.784 576.984 76.4 578.248 76.4C578.584 76.4 578.952 76.448 579.352 76.544C579.768 76.64 580.128 76.8 580.432 77.024L579.496 78.632C579.352 78.488 579.192 78.392 579.016 78.344C578.84 78.28 578.664 78.248 578.488 78.248C577.896 78.248 577.44 78.448 577.12 78.848C576.8 79.248 576.64 79.928 576.64 80.888V85.064H579.784V87.056H576.64V95H574.408ZM594.408 95.24C593.48 95.24 592.632 95.04 591.864 94.64C591.112 94.24 590.512 93.656 590.064 92.888C589.632 92.104 589.416 91.152 589.416 90.032C589.416 88.928 589.648 87.976 590.112 87.176C590.576 86.36 591.192 85.736 591.96 85.304C592.744 84.872 593.6 84.656 594.528 84.656C595.456 84.656 596.24 84.872 596.88 85.304C597.52 85.72 598.008 86.216 598.344 86.792L598.2 87.176L598.416 85.064H600.48V95H598.248V92.408L598.488 92.984C598.424 93.144 598.28 93.352 598.056 93.608C597.848 93.848 597.56 94.096 597.192 94.352C596.84 94.608 596.432 94.824 595.968 95C595.504 95.16 594.984 95.24 594.408 95.24ZM595.008 93.392C595.568 93.392 596.072 93.288 596.52 93.08C596.968 92.872 597.336 92.584 597.624 92.216C597.928 91.832 598.136 91.376 598.248 90.848V88.904C598.12 88.424 597.896 88.008 597.576 87.656C597.256 87.288 596.872 87.008 596.424 86.816C595.976 86.608 595.48 86.504 594.936 86.504C594.344 86.504 593.8 86.648 593.304 86.936C592.808 87.224 592.408 87.624 592.104 88.136C591.816 88.648 591.672 89.248 591.672 89.936C591.672 90.576 591.824 91.16 592.128 91.688C592.432 92.216 592.84 92.632 593.352 92.936C593.864 93.24 594.416 93.392 595.008 93.392ZM607.126 95.192C606.422 95.192 605.734 95.072 605.062 94.832C604.406 94.576 603.862 94.2 603.43 93.704L604.366 92.408C604.782 92.808 605.206 93.112 605.638 93.32C606.086 93.512 606.526 93.608 606.958 93.608C607.278 93.608 607.574 93.568 607.846 93.488C608.118 93.408 608.334 93.28 608.494 93.104C608.67 92.912 608.758 92.656 608.758 92.336C608.758 91.984 608.638 91.704 608.398 91.496C608.174 91.288 607.878 91.12 607.51 90.992C607.158 90.864 606.782 90.744 606.382 90.632C605.566 90.36 604.942 89.984 604.51 89.504C604.078 89.024 603.862 88.44 603.862 87.752C603.862 87.224 603.99 86.736 604.246 86.288C604.518 85.824 604.91 85.448 605.422 85.16C605.95 84.872 606.598 84.728 607.366 84.728C608.054 84.728 608.67 84.816 609.214 84.992C609.758 85.152 610.27 85.424 610.75 85.808L609.862 87.2C609.574 86.896 609.23 86.672 608.83 86.528C608.43 86.384 608.07 86.304 607.75 86.288C607.478 86.272 607.214 86.312 606.958 86.408C606.718 86.504 606.518 86.64 606.358 86.816C606.198 86.992 606.118 87.2 606.118 87.44C606.118 87.776 606.23 88.048 606.454 88.256C606.678 88.464 606.966 88.632 607.318 88.76C607.686 88.872 608.046 88.992 608.398 89.12C608.894 89.264 609.334 89.456 609.718 89.696C610.102 89.936 610.406 90.232 610.63 90.584C610.87 90.936 610.99 91.376 610.99 91.904C610.99 92.496 610.846 93.048 610.558 93.56C610.286 94.056 609.862 94.456 609.286 94.76C608.726 95.048 608.006 95.192 607.126 95.192ZM628.07 85.064L630.998 91.76L630.566 91.808L633.302 85.064H635.486L630.926 95.6L627.734 88.784L624.83 95.6L620.222 85.064H622.406L625.502 92.072L624.734 91.928L626.942 86.792L626.15 85.064H628.07ZM642.255 95.24C641.119 95.24 640.143 95.016 639.327 94.568C638.511 94.104 637.879 93.48 637.431 92.696C636.999 91.896 636.783 90.984 636.783 89.96C636.783 88.984 637.031 88.096 637.527 87.296C638.023 86.496 638.687 85.856 639.519 85.376C640.351 84.896 641.279 84.656 642.303 84.656C643.615 84.656 644.703 85.04 645.567 85.808C646.431 86.576 647.015 87.632 647.319 88.976L639.135 91.856L638.607 90.536L645.327 88.088L644.847 88.4C644.655 87.872 644.335 87.416 643.887 87.032C643.439 86.632 642.855 86.432 642.135 86.432C641.527 86.432 640.983 86.584 640.503 86.888C640.023 87.176 639.647 87.576 639.375 88.088C639.103 88.6 638.967 89.184 638.967 89.84C638.967 90.528 639.111 91.136 639.399 91.664C639.687 92.176 640.079 92.584 640.575 92.888C641.087 93.176 641.663 93.32 642.303 93.32C642.735 93.32 643.151 93.24 643.551 93.08C643.967 92.92 644.351 92.712 644.703 92.456L645.735 94.112C645.239 94.448 644.679 94.72 644.055 94.928C643.447 95.136 642.847 95.24 642.255 95.24ZM657.71 76.424H659.942V95H657.71V76.424ZM662.939 89.936C662.939 88.944 663.171 88.048 663.635 87.248C664.115 86.448 664.771 85.816 665.603 85.352C666.435 84.888 667.379 84.656 668.435 84.656C669.523 84.656 670.475 84.888 671.291 85.352C672.107 85.816 672.739 86.448 673.187 87.248C673.635 88.048 673.859 88.944 673.859 89.936C673.859 90.928 673.635 91.832 673.187 92.648C672.739 93.448 672.099 94.08 671.267 94.544C670.451 95.008 669.499 95.24 668.411 95.24C667.355 95.24 666.411 95.024 665.579 94.592C664.763 94.144 664.115 93.528 663.635 92.744C663.171 91.944 662.939 91.008 662.939 89.936ZM665.171 89.96C665.171 90.6 665.315 91.184 665.603 91.712C665.891 92.224 666.275 92.632 666.755 92.936C667.251 93.24 667.795 93.392 668.387 93.392C669.011 93.392 669.563 93.24 670.043 92.936C670.539 92.632 670.923 92.224 671.195 91.712C671.467 91.184 671.603 90.6 671.603 89.96C671.603 89.32 671.467 88.744 671.195 88.232C670.923 87.704 670.539 87.288 670.043 86.984C669.563 86.664 669.011 86.504 668.387 86.504C667.779 86.504 667.227 86.664 666.731 86.984C666.251 87.304 665.867 87.728 665.579 88.256C665.307 88.768 665.171 89.336 665.171 89.96ZM680.609 95.288L675.089 85.064H677.729L681.473 92.96L680.105 92.912L683.537 85.064H686.033L680.729 95.288H680.609ZM692.81 95.24C691.674 95.24 690.698 95.016 689.882 94.568C689.066 94.104 688.434 93.48 687.986 92.696C687.554 91.896 687.338 90.984 687.338 89.96C687.338 88.984 687.586 88.096 688.082 87.296C688.578 86.496 689.242 85.856 690.074 85.376C690.906 84.896 691.834 84.656 692.858 84.656C694.17 84.656 695.258 85.04 696.122 85.808C696.986 86.576 697.57 87.632 697.874 88.976L689.69 91.856L689.162 90.536L695.882 88.088L695.402 88.4C695.21 87.872 694.89 87.416 694.442 87.032C693.994 86.632 693.41 86.432 692.69 86.432C692.082 86.432 691.538 86.584 691.058 86.888C690.578 87.176 690.202 87.576 689.93 88.088C689.658 88.6 689.522 89.184 689.522 89.84C689.522 90.528 689.666 91.136 689.954 91.664C690.242 92.176 690.634 92.584 691.13 92.888C691.642 93.176 692.218 93.32 692.858 93.32C693.29 93.32 693.706 93.24 694.106 93.08C694.522 92.92 694.906 92.712 695.258 92.456L696.29 94.112C695.794 94.448 695.234 94.72 694.61 94.928C694.002 95.136 693.402 95.24 692.81 95.24ZM709.104 99.776L715.656 85.064H717.72L711.312 99.776H709.104ZM711.552 95.072L706.776 85.064H709.296L713.304 93.944L711.552 95.072ZM718.955 89.936C718.955 88.944 719.187 88.048 719.651 87.248C720.131 86.448 720.787 85.816 721.619 85.352C722.451 84.888 723.395 84.656 724.451 84.656C725.539 84.656 726.491 84.888 727.307 85.352C728.123 85.816 728.755 86.448 729.203 87.248C729.651 88.048 729.875 88.944 729.875 89.936C729.875 90.928 729.651 91.832 729.203 92.648C728.755 93.448 728.115 94.08 727.283 94.544C726.467 95.008 725.515 95.24 724.427 95.24C723.371 95.24 722.427 95.024 721.595 94.592C720.779 94.144 720.131 93.528 719.651 92.744C719.187 91.944 718.955 91.008 718.955 89.936ZM721.187 89.96C721.187 90.6 721.331 91.184 721.619 91.712C721.907 92.224 722.291 92.632 722.771 92.936C723.267 93.24 723.811 93.392 724.403 93.392C725.027 93.392 725.579 93.24 726.059 92.936C726.555 92.632 726.939 92.224 727.211 91.712C727.483 91.184 727.619 90.6 727.619 89.96C727.619 89.32 727.483 88.744 727.211 88.232C726.939 87.704 726.555 87.288 726.059 86.984C725.579 86.664 725.027 86.504 724.403 86.504C723.795 86.504 723.243 86.664 722.747 86.984C722.267 87.304 721.883 87.728 721.595 88.256C721.323 88.768 721.187 89.336 721.187 89.96ZM736.041 95.384C735.145 95.384 734.401 95.112 733.809 94.568C733.233 94.008 732.929 93.288 732.897 92.408V85.064H735.129V91.616C735.161 92.16 735.313 92.6 735.585 92.936C735.873 93.272 736.321 93.448 736.929 93.464C737.489 93.464 737.985 93.304 738.417 92.984C738.865 92.648 739.225 92.2 739.497 91.64C739.769 91.064 739.905 90.416 739.905 89.696V85.064H742.137V95H740.097L739.905 92.552L740.025 92.984C739.833 93.448 739.537 93.864 739.137 94.232C738.753 94.584 738.297 94.864 737.769 95.072C737.241 95.28 736.665 95.384 736.041 95.384Z"
                        fill="white" />
                </g>
                <defs>
                    <filter id="filter0_d_1_316" x="477.324" y="131.328" width="240.616" height="29.952"
                        filterUnits="userSpaceOnUse" color-interpolation-filters="sRGB">
                        <feFlood flood-opacity="0" result="BackgroundImageFix" />
                        <feColorMatrix in="SourceAlpha" type="matrix" values="0 0 0 0 0 0 0 0 0 0 0 0 0 0 0 0 0 0 127 0"
                            result="hardAlpha" />
                        <feOffset dy="4" />
                        <feGaussianBlur stdDeviation="2" />
                        <feComposite in2="hardAlpha" operator="out" />
                        <feColorMatrix type="matrix" values="0 0 0 0 0 0 0 0 0 0 0 0 0 0 0 0 0 0 0.25 0" />
                        <feBlend mode="normal" in2="BackgroundImageFix" result="effect1_dropShadow_1_316" />
                        <feBlend mode="normal" in="SourceGraphic" in2="effect1_dropShadow_1_316" result="shape" />
                    </filter>
                    <filter id="filter1_d_1_316" x="443.944" y="76.4" width="302.193" height="31.376"
                        filterUnits="userSpaceOnUse" color-interpolation-filters="sRGB">
                        <feFlood flood-opacity="0" result="BackgroundImageFix" />
                        <feColorMatrix in="SourceAlpha" type="matrix" values="0 0 0 0 0 0 0 0 0 0 0 0 0 0 0 0 0 0 127 0"
                            result="hardAlpha" />
                        <feOffset dy="4" />
                        <feGaussianBlur stdDeviation="2" />
                        <feComposite in2="hardAlpha" operator="out" />
                        <feColorMatrix type="matrix" values="0 0 0 0 0 0 0 0 0 0 0 0 0 0 0 0 0 0 0.25 0" />
                        <feBlend mode="normal" in2="BackgroundImageFix" result="effect1_dropShadow_1_316" />
                        <feBlend mode="normal" in="SourceGraphic" in2="effect1_dropShadow_1_316" result="shape" />
                    </filter>
                    <linearGradient id="paint0_linear_1_316" x1="997.663" y1="61.593" x2="472.219" y2="295.074"
                        gradientUnits="userSpaceOnUse">
                        <stop stop-color="#467471" />
                        <stop offset="1" stop-color="#616340" />
                    </linearGradient>
                    <linearGradient id="paint1_linear_1_316" x1="198.337" y1="61.4149" x2="723.781" y2="294.896"
                        gradientUnits="userSpaceOnUse">
                        <stop stop-color="#467471" />
                        <stop offset="1" stop-color="#91944D" />
                    </linearGradient>
                </defs>
            </svg>