<svg width="705" height="339" viewBox="0 0 705 339" fill="none" xmlns="http://www.w3.org/2000/svg">
<path d="M7 318.159C128.801 405.109 90.5 -224.565 178 101.435C178 101.435 193.5 111 219.5 66.5" stroke="white" stroke-width="14" stroke-linecap="round"/>
<path d="M133.726 7.47679C13.9969 126.08 140.797 273.85 148.538 272.468C156.279 271.085 329.364 57.2404 287.164 30.6998C244.964 4.1592 160.046 341.481 278.041 331.769C300.082 329.955 328.634 244.683 265.6 277.859" stroke="white" stroke-width="14" stroke-linecap="round"/>
<path d="M325.025 187C323.285 187 321.883 186.517 320.82 185.55C319.853 184.487 319.37 183.085 319.37 181.345V113.34C319.37 111.6 319.853 110.247 320.82 109.28C321.883 108.217 323.285 107.685 325.025 107.685C326.668 107.685 327.973 108.217 328.94 109.28C330.003 110.247 330.535 111.6 330.535 113.34V181.345C330.535 183.085 330.003 184.487 328.94 185.55C327.973 186.517 326.668 187 325.025 187ZM324.88 92.605C322.753 92.605 320.917 91.8317 319.37 90.285C317.823 88.7383 317.05 86.8533 317.05 84.63C317.05 82.2133 317.823 80.3283 319.37 78.975C321.013 77.525 322.898 76.8 325.025 76.8C327.055 76.8 328.843 77.525 330.39 78.975C332.033 80.3283 332.855 82.2133 332.855 84.63C332.855 86.8533 332.082 88.7383 330.535 90.285C328.988 91.8317 327.103 92.605 324.88 92.605ZM426.969 187C425.326 187 423.972 186.468 422.909 185.405C421.846 184.342 421.314 183.037 421.314 181.49V143.79C421.314 137.797 420.154 132.867 417.834 129C415.611 125.133 412.517 122.233 408.554 120.3C404.687 118.367 400.289 117.4 395.359 117.4C390.622 117.4 386.321 118.318 382.454 120.155C378.684 121.992 375.687 124.505 373.464 127.695C371.241 130.885 370.129 134.51 370.129 138.57H362.154C362.347 132.48 363.991 127.067 367.084 122.33C370.177 117.497 374.286 113.727 379.409 111.02C384.532 108.217 390.236 106.815 396.519 106.815C403.382 106.815 409.521 108.265 414.934 111.165C420.347 113.968 424.601 118.125 427.694 123.635C430.884 129.145 432.479 135.863 432.479 143.79V181.49C432.479 183.037 431.947 184.342 430.884 185.405C429.821 186.468 428.516 187 426.969 187ZM364.619 187C362.879 187 361.477 186.517 360.414 185.55C359.447 184.487 358.964 183.133 358.964 181.49V113.34C358.964 111.6 359.447 110.247 360.414 109.28C361.477 108.217 362.879 107.685 364.619 107.685C366.262 107.685 367.567 108.217 368.534 109.28C369.597 110.247 370.129 111.6 370.129 113.34V181.49C370.129 183.133 369.597 184.487 368.534 185.55C367.567 186.517 366.262 187 364.619 187ZM493.199 187.725C485.562 187.725 478.699 185.985 472.609 182.505C466.519 178.928 461.686 174.095 458.109 168.005C454.629 161.915 452.889 155.003 452.889 147.27C452.889 139.633 454.581 132.77 457.964 126.68C461.444 120.59 466.132 115.805 472.029 112.325C477.926 108.748 484.596 106.96 492.039 106.96C498.516 106.96 504.364 108.362 509.584 111.165C514.804 113.872 519.009 117.497 522.199 122.04V79.41C522.199 77.67 522.731 76.3167 523.794 75.35C524.857 74.2867 526.211 73.755 527.854 73.755C529.497 73.755 530.851 74.2867 531.914 75.35C532.977 76.3167 533.509 77.67 533.509 79.41V147.85C533.316 155.39 531.431 162.205 527.854 168.295C524.374 174.288 519.589 179.025 513.499 182.505C507.506 185.985 500.739 187.725 493.199 187.725ZM493.199 177.575C498.806 177.575 503.784 176.27 508.134 173.66C512.581 170.953 516.061 167.328 518.574 162.785C521.184 158.242 522.489 153.07 522.489 147.27C522.489 141.567 521.184 136.443 518.574 131.9C516.061 127.26 512.581 123.635 508.134 121.025C503.784 118.415 498.806 117.11 493.199 117.11C487.689 117.11 482.711 118.415 478.264 121.025C473.817 123.635 470.289 127.26 467.679 131.9C465.069 136.443 463.764 141.567 463.764 147.27C463.764 153.07 465.069 158.242 467.679 162.785C470.289 167.328 473.817 170.953 478.264 173.66C482.711 176.27 487.689 177.575 493.199 177.575Z" fill="white"/>
<path d="M324.155 318C322.512 318 321.158 317.468 320.095 316.405C319.032 315.342 318.5 313.988 318.5 312.345V210.41C318.5 208.767 319.032 207.413 320.095 206.35C321.158 205.287 322.512 204.755 324.155 204.755H353.155C360.308 204.755 366.64 206.35 372.15 209.54C377.66 212.633 381.962 216.935 385.055 222.445C388.148 227.955 389.695 234.335 389.695 241.585C389.695 248.642 388.148 254.925 385.055 260.435C381.962 265.848 377.66 270.15 372.15 273.34C366.64 276.433 360.308 277.98 353.155 277.98H329.81V312.345C329.81 313.988 329.278 315.342 328.215 316.405C327.152 317.468 325.798 318 324.155 318ZM329.81 267.105H353.155C358.085 267.105 362.483 266.042 366.35 263.915C370.217 261.692 373.213 258.647 375.34 254.78C377.563 250.913 378.675 246.515 378.675 241.585C378.675 236.462 377.563 231.967 375.34 228.1C373.213 224.233 370.217 221.188 366.35 218.965C362.483 216.742 358.085 215.63 353.155 215.63H329.81V267.105ZM422.944 318C419.078 318 415.598 316.937 412.504 314.81C409.508 312.683 407.139 309.735 405.399 305.965C403.756 302.195 402.934 297.845 402.934 292.915V210.265C402.934 208.622 403.418 207.317 404.384 206.35C405.448 205.287 406.801 204.755 408.444 204.755C410.088 204.755 411.393 205.287 412.359 206.35C413.423 207.317 413.954 208.622 413.954 210.265V292.915C413.954 297.072 414.776 300.455 416.419 303.065C418.159 305.675 420.334 306.98 422.944 306.98H426.569C428.019 306.98 429.179 307.512 430.049 308.575C430.919 309.542 431.354 310.847 431.354 312.49C431.354 314.133 430.726 315.487 429.469 316.55C428.309 317.517 426.763 318 424.829 318H422.944ZM477.312 318.725C469.869 318.725 463.199 316.985 457.302 313.505C451.406 309.928 446.717 305.095 443.237 299.005C439.854 292.915 438.162 286.052 438.162 278.415C438.162 270.682 439.902 263.77 443.382 257.68C446.959 251.59 451.792 246.805 457.882 243.325C463.972 239.748 470.836 237.96 478.472 237.96C486.109 237.96 492.924 239.748 498.917 243.325C505.007 246.805 509.792 251.59 513.272 257.68C516.849 263.77 518.686 270.682 518.782 278.415L514.287 281.895C514.287 288.855 512.644 295.138 509.357 300.745C506.167 306.255 501.769 310.653 496.162 313.94C490.652 317.13 484.369 318.725 477.312 318.725ZM478.472 308.575C484.079 308.575 489.057 307.27 493.407 304.66C497.854 302.05 501.334 298.473 503.847 293.93C506.457 289.29 507.762 284.118 507.762 278.415C507.762 272.615 506.457 267.443 503.847 262.9C501.334 258.357 497.854 254.78 493.407 252.17C489.057 249.463 484.079 248.11 478.472 248.11C472.962 248.11 467.984 249.463 463.537 252.17C459.091 254.78 455.562 258.357 452.952 262.9C450.342 267.443 449.037 272.615 449.037 278.415C449.037 284.118 450.342 289.29 452.952 293.93C455.562 298.473 459.091 302.05 463.537 304.66C467.984 307.27 472.962 308.575 478.472 308.575ZM513.127 318C511.484 318 510.131 317.517 509.067 316.55C508.004 315.487 507.472 314.133 507.472 312.49V287.695L510.227 276.24L518.782 278.415V312.49C518.782 314.133 518.251 315.487 517.187 316.55C516.124 317.517 514.771 318 513.127 318ZM575.877 318.725C568.241 318.725 561.426 316.985 555.432 313.505C549.536 309.928 544.847 305.095 541.367 299.005C537.984 292.915 536.292 286.052 536.292 278.415C536.292 270.682 537.936 263.77 541.222 257.68C544.509 251.59 549.004 246.805 554.707 243.325C560.411 239.748 566.984 237.96 574.427 237.96C580.324 237.96 585.737 239.12 590.667 241.44C595.694 243.76 600.092 247.24 603.862 251.88C604.926 253.04 605.312 254.297 605.022 255.65C604.732 256.907 603.911 258.018 602.557 258.985C601.494 259.758 600.286 260.048 598.932 259.855C597.676 259.565 596.564 258.84 595.597 257.68C589.991 251.3 582.934 248.11 574.427 248.11C569.014 248.11 564.229 249.415 560.072 252.025C556.012 254.635 552.822 258.212 550.502 262.755C548.279 267.298 547.167 272.518 547.167 278.415C547.167 284.215 548.376 289.387 550.792 293.93C553.209 298.473 556.592 302.05 560.942 304.66C565.292 307.27 570.271 308.575 575.877 308.575C579.647 308.575 583.079 308.092 586.172 307.125C589.362 306.062 592.166 304.467 594.582 302.34C595.742 301.373 596.951 300.842 598.207 300.745C599.464 300.648 600.624 301.035 601.687 301.905C602.847 302.968 603.476 304.177 603.572 305.53C603.766 306.883 603.331 308.043 602.267 309.01C595.211 315.487 586.414 318.725 575.877 318.725ZM662.693 318.725C654.863 318.725 647.903 317.033 641.813 313.65C635.819 310.17 631.083 305.385 627.603 299.295C624.219 293.205 622.528 286.245 622.528 278.415C622.528 270.488 624.123 263.528 627.313 257.535C630.599 251.445 635.094 246.66 640.798 243.18C646.501 239.7 653.074 237.96 660.518 237.96C667.864 237.96 674.244 239.652 679.658 243.035C685.168 246.322 689.421 250.913 692.418 256.81C695.414 262.707 696.913 269.425 696.913 276.965C696.913 278.512 696.429 279.768 695.463 280.735C694.496 281.605 693.239 282.04 691.693 282.04H630.068V272.76H692.853L686.618 277.255C686.714 271.648 685.699 266.622 683.573 262.175C681.446 257.728 678.401 254.248 674.438 251.735C670.571 249.222 665.931 247.965 660.518 247.965C655.008 247.965 650.174 249.27 646.018 251.88C641.861 254.49 638.623 258.115 636.303 262.755C634.079 267.298 632.968 272.518 632.968 278.415C632.968 284.312 634.224 289.532 636.738 294.075C639.348 298.618 642.876 302.195 647.323 304.805C651.769 307.415 656.893 308.72 662.693 308.72C666.173 308.72 669.653 308.14 673.133 306.98C676.709 305.723 679.561 304.177 681.688 302.34C682.751 301.47 683.959 301.035 685.313 301.035C686.666 300.938 687.826 301.277 688.793 302.05C690.049 303.21 690.678 304.467 690.678 305.82C690.774 307.173 690.243 308.333 689.083 309.3C685.893 312.007 681.833 314.278 676.903 316.115C671.973 317.855 667.236 318.725 662.693 318.725Z" fill="white"/>
</svg>
