            <svg width="100%" height="100%" viewBox="0 0 485 166" fill="none"
                xmlns="http://www.w3.org/2000/svg">
                <path d="M0 134.153C91.8256 66.4532 318.472 -48.7565 484 22.3883V166H0V134.153Z"
                    fill="url(#paint0_linear_2_6)" />
                <path d="M484.405 126.131C392.502 41.7888 36 2.10816 0 52V165.806H484.405V126.131Z"
                    fill="url(#paint1_linear_2_6)" />
                <g filter="url(#filter0_d_2_6)">
                    <path
                        d="M183.056 121.768C182.821 121.992 182.512 122.2 182.128 122.392C181.744 122.573 181.307 122.659 180.816 122.648C180.272 122.637 179.776 122.493 179.328 122.216C178.891 121.939 178.544 121.576 178.288 121.128C178.043 120.669 177.92 120.173 177.92 119.64C177.92 119.043 178.043 118.515 178.288 118.056C178.544 117.597 178.901 117.235 179.36 116.968C179.819 116.701 180.347 116.568 180.944 116.568C181.157 116.568 181.376 116.589 181.6 116.632C181.824 116.664 182.043 116.723 182.256 116.808C182.48 116.883 182.667 116.989 182.816 117.128L182.224 118.264C182.053 118.115 181.867 118.013 181.664 117.96C181.472 117.907 181.269 117.88 181.056 117.88C180.747 117.88 180.469 117.96 180.224 118.12C179.989 118.28 179.803 118.488 179.664 118.744C179.525 119 179.456 119.283 179.456 119.592C179.456 119.901 179.52 120.184 179.648 120.44C179.787 120.696 179.973 120.904 180.208 121.064C180.453 121.224 180.736 121.304 181.056 121.304C181.291 121.304 181.52 121.261 181.744 121.176C181.979 121.08 182.187 120.936 182.368 120.744L183.056 121.768ZM180.768 125.016C180.021 125.016 179.317 124.883 178.656 124.616C178.005 124.349 177.429 123.976 176.928 123.496C176.427 123.005 176.032 122.435 175.744 121.784C175.467 121.133 175.328 120.424 175.328 119.656C175.328 118.877 175.467 118.163 175.744 117.512C176.032 116.851 176.427 116.28 176.928 115.8C177.429 115.32 178.005 114.947 178.656 114.68C179.317 114.413 180.027 114.28 180.784 114.28C181.531 114.28 182.229 114.413 182.88 114.68C183.541 114.947 184.123 115.32 184.624 115.8C185.125 116.28 185.515 116.851 185.792 117.512C186.08 118.163 186.224 118.877 186.224 119.656C186.224 120.424 186.085 121.133 185.808 121.784C185.531 122.435 185.141 123.005 184.64 123.496C184.149 123.976 183.573 124.349 182.912 124.616C182.261 124.883 181.547 125.016 180.768 125.016ZM180.768 123.8C181.547 123.8 182.245 123.624 182.864 123.272C183.493 122.909 183.989 122.413 184.352 121.784C184.725 121.155 184.912 120.451 184.912 119.672C184.912 118.851 184.725 118.131 184.352 117.512C183.989 116.883 183.493 116.387 182.864 116.024C182.245 115.661 181.547 115.48 180.768 115.48C180 115.48 179.301 115.661 178.672 116.024C178.043 116.387 177.541 116.883 177.168 117.512C176.805 118.141 176.624 118.861 176.624 119.672C176.624 120.461 176.795 121.171 177.136 121.8C177.488 122.419 177.973 122.909 178.592 123.272C179.221 123.624 179.947 123.8 180.768 123.8ZM194.273 125V113.064H194.289L200.353 121.672L199.697 121.544L205.745 113.064H205.777V125H204.241V116.584L204.337 117.368L199.969 123.544H199.937L195.505 117.368L195.777 116.648V125H194.273ZM208.734 118.376H210.222V125H208.734V118.376ZM208.622 115.976C208.622 115.741 208.712 115.544 208.894 115.384C209.086 115.224 209.294 115.144 209.518 115.144C209.742 115.144 209.939 115.224 210.11 115.384C210.291 115.544 210.382 115.741 210.382 115.976C210.382 116.221 210.291 116.424 210.11 116.584C209.939 116.733 209.742 116.808 209.518 116.808C209.294 116.808 209.086 116.728 208.894 116.568C208.712 116.408 208.622 116.211 208.622 115.976ZM214.124 118.376L214.252 119.992L214.188 119.736C214.401 119.245 214.748 118.856 215.228 118.568C215.708 118.269 216.263 118.12 216.892 118.12C217.521 118.12 218.033 118.307 218.428 118.68C218.833 119.043 219.041 119.517 219.052 120.104V125H217.548V120.632C217.537 120.269 217.431 119.976 217.228 119.752C217.036 119.517 216.732 119.4 216.316 119.4C215.932 119.4 215.585 119.507 215.276 119.72C214.967 119.933 214.721 120.227 214.54 120.6C214.369 120.973 214.284 121.405 214.284 121.896V125H212.796V118.376H214.124ZM224.328 125.16C223.72 125.16 223.165 125.016 222.664 124.728C222.173 124.429 221.784 124.013 221.496 123.48C221.208 122.936 221.064 122.312 221.064 121.608C221.064 120.872 221.213 120.243 221.512 119.72C221.821 119.197 222.237 118.797 222.76 118.52C223.282 118.243 223.869 118.104 224.52 118.104C225.042 118.104 225.538 118.216 226.008 118.44C226.488 118.664 226.861 118.973 227.128 119.368L227.064 119.896V112.616H228.536V125H227.048V123.352L227.208 123.768C226.898 124.173 226.498 124.509 226.008 124.776C225.517 125.032 224.957 125.16 224.328 125.16ZM224.792 123.896C225.186 123.896 225.538 123.827 225.848 123.688C226.157 123.539 226.413 123.336 226.616 123.08C226.818 122.824 226.962 122.52 227.048 122.168V120.92C226.962 120.6 226.808 120.323 226.584 120.088C226.37 119.843 226.109 119.651 225.8 119.512C225.501 119.363 225.165 119.288 224.792 119.288C224.386 119.288 224.013 119.389 223.672 119.592C223.341 119.784 223.074 120.051 222.872 120.392C222.669 120.733 222.568 121.128 222.568 121.576C222.568 122.013 222.669 122.408 222.872 122.76C223.074 123.101 223.346 123.379 223.688 123.592C224.029 123.795 224.397 123.896 224.792 123.896ZM234.58 113.432C235.423 113.432 236.143 113.576 236.74 113.864C237.337 114.141 237.796 114.547 238.116 115.08C238.447 115.613 238.612 116.259 238.612 117.016C238.612 117.475 238.543 117.928 238.404 118.376C238.265 118.813 238.041 119.213 237.732 119.576C237.433 119.928 237.039 120.211 236.548 120.424C236.057 120.637 235.46 120.744 234.756 120.744H233.044V125H231.492V113.432H234.58ZM234.74 119.256C235.199 119.256 235.577 119.181 235.876 119.032C236.175 118.883 236.409 118.696 236.58 118.472C236.751 118.237 236.873 117.992 236.948 117.736C237.023 117.48 237.06 117.251 237.06 117.048C237.06 116.813 237.023 116.573 236.948 116.328C236.873 116.072 236.745 115.843 236.564 115.64C236.393 115.427 236.164 115.256 235.876 115.128C235.599 114.989 235.252 114.92 234.836 114.92H233.044V119.256H234.74ZM240.64 112.616H242.128V125H240.64V112.616ZM247.454 125.16C246.836 125.16 246.27 125.027 245.758 124.76C245.257 124.493 244.857 124.104 244.558 123.592C244.27 123.069 244.126 122.435 244.126 121.688C244.126 120.952 244.281 120.317 244.59 119.784C244.9 119.24 245.31 118.824 245.822 118.536C246.345 118.248 246.916 118.104 247.534 118.104C248.153 118.104 248.676 118.248 249.102 118.536C249.529 118.813 249.854 119.144 250.078 119.528L249.982 119.784L250.126 118.376H251.502V125H250.014V123.272L250.174 123.656C250.132 123.763 250.036 123.901 249.886 124.072C249.748 124.232 249.556 124.397 249.31 124.568C249.076 124.739 248.804 124.883 248.494 125C248.185 125.107 247.838 125.16 247.454 125.16ZM247.854 123.928C248.228 123.928 248.564 123.859 248.862 123.72C249.161 123.581 249.406 123.389 249.598 123.144C249.801 122.888 249.94 122.584 250.014 122.232V120.936C249.929 120.616 249.78 120.339 249.566 120.104C249.353 119.859 249.097 119.672 248.798 119.544C248.5 119.405 248.169 119.336 247.806 119.336C247.412 119.336 247.049 119.432 246.718 119.624C246.388 119.816 246.121 120.083 245.918 120.424C245.726 120.765 245.63 121.165 245.63 121.624C245.63 122.051 245.732 122.44 245.934 122.792C246.137 123.144 246.409 123.421 246.75 123.624C247.092 123.827 247.46 123.928 247.854 123.928ZM259.453 124.392C259.155 124.627 258.797 124.813 258.381 124.952C257.965 125.091 257.549 125.16 257.133 125.16C256.408 125.16 255.773 125.016 255.229 124.728C254.685 124.44 254.259 124.04 253.949 123.528C253.651 123.005 253.501 122.392 253.501 121.688C253.501 120.984 253.661 120.371 253.981 119.848C254.312 119.325 254.739 118.925 255.261 118.648C255.795 118.36 256.365 118.216 256.973 118.216C257.507 118.216 257.981 118.291 258.397 118.44C258.824 118.589 259.187 118.792 259.485 119.048L258.749 120.008C258.557 119.859 258.323 119.725 258.045 119.608C257.768 119.491 257.453 119.432 257.101 119.432C256.717 119.432 256.36 119.533 256.029 119.736C255.709 119.928 255.453 120.195 255.261 120.536C255.08 120.877 254.989 121.261 254.989 121.688C254.989 122.093 255.085 122.472 255.277 122.824C255.469 123.165 255.736 123.437 256.077 123.64C256.419 123.832 256.808 123.928 257.245 123.928C257.533 123.928 257.795 123.885 258.029 123.8C258.275 123.715 258.493 123.597 258.685 123.448L259.453 124.392ZM264.446 125.16C263.689 125.16 263.038 125.011 262.494 124.712C261.95 124.403 261.529 123.987 261.23 123.464C260.942 122.931 260.798 122.323 260.798 121.64C260.798 120.989 260.963 120.397 261.294 119.864C261.625 119.331 262.067 118.904 262.622 118.584C263.177 118.264 263.795 118.104 264.478 118.104C265.353 118.104 266.078 118.36 266.654 118.872C267.23 119.384 267.619 120.088 267.822 120.984L262.366 122.904L262.014 122.024L266.494 120.392L266.174 120.6C266.046 120.248 265.833 119.944 265.534 119.688C265.235 119.421 264.846 119.288 264.366 119.288C263.961 119.288 263.598 119.389 263.278 119.592C262.958 119.784 262.707 120.051 262.526 120.392C262.345 120.733 262.254 121.123 262.254 121.56C262.254 122.019 262.35 122.424 262.542 122.776C262.734 123.117 262.995 123.389 263.326 123.592C263.667 123.784 264.051 123.88 264.478 123.88C264.766 123.88 265.043 123.827 265.31 123.72C265.587 123.613 265.843 123.475 266.078 123.304L266.766 124.408C266.435 124.632 266.062 124.813 265.646 124.952C265.241 125.091 264.841 125.16 264.446 125.16ZM274.301 125C274.984 124.339 275.634 123.688 276.253 123.048C276.872 122.408 277.426 121.789 277.917 121.192C278.418 120.595 278.813 120.019 279.101 119.464C279.389 118.899 279.533 118.355 279.533 117.832C279.533 117.48 279.474 117.181 279.357 116.936C279.24 116.68 279.085 116.472 278.893 116.312C278.712 116.152 278.504 116.035 278.269 115.96C278.034 115.875 277.794 115.832 277.549 115.832C277.197 115.832 276.898 115.891 276.653 116.008C276.408 116.115 276.205 116.259 276.045 116.44C275.896 116.621 275.784 116.813 275.709 117.016C275.645 117.219 275.613 117.421 275.613 117.624C275.613 117.976 275.666 118.296 275.773 118.584C275.88 118.861 276.034 119.107 276.237 119.32L275.277 120.168C275.032 120.008 274.818 119.784 274.637 119.496C274.466 119.208 274.333 118.899 274.237 118.568C274.152 118.227 274.109 117.923 274.109 117.656C274.109 117.08 274.248 116.541 274.525 116.04C274.813 115.528 275.229 115.117 275.773 114.808C276.328 114.499 277 114.344 277.789 114.344C278.461 114.344 279.048 114.499 279.549 114.808C280.05 115.117 280.44 115.528 280.717 116.04C280.994 116.541 281.133 117.096 281.133 117.704C281.133 118.237 281.026 118.76 280.813 119.272C280.6 119.784 280.312 120.291 279.949 120.792C279.597 121.293 279.202 121.789 278.765 122.28C278.338 122.76 277.912 123.245 277.485 123.736L276.813 123.512H281.485V125H274.301ZM287.164 125.048C286.513 125.048 285.916 124.925 285.372 124.68C284.828 124.435 284.359 124.083 283.964 123.624C283.58 123.155 283.281 122.589 283.068 121.928C282.855 121.267 282.748 120.525 282.748 119.704C282.748 118.808 282.849 118.029 283.052 117.368C283.255 116.696 283.548 116.136 283.932 115.688C284.327 115.24 284.796 114.909 285.34 114.696C285.884 114.472 286.492 114.36 287.164 114.36C287.815 114.36 288.407 114.483 288.94 114.728C289.484 114.973 289.948 115.331 290.332 115.8C290.727 116.259 291.031 116.819 291.244 117.48C291.468 118.131 291.58 118.872 291.58 119.704C291.58 120.547 291.468 121.299 291.244 121.96C291.031 122.621 290.727 123.181 290.332 123.64C289.948 124.099 289.484 124.451 288.94 124.696C288.407 124.931 287.815 125.048 287.164 125.048ZM287.148 123.56C287.767 123.56 288.284 123.4 288.7 123.08C289.127 122.749 289.447 122.291 289.66 121.704C289.873 121.117 289.98 120.44 289.98 119.672C289.98 118.904 289.873 118.237 289.66 117.672C289.447 117.096 289.127 116.648 288.7 116.328C288.284 116.008 287.767 115.848 287.148 115.848C286.529 115.848 286.012 116.013 285.596 116.344C285.18 116.664 284.865 117.112 284.652 117.688C284.449 118.264 284.348 118.936 284.348 119.704C284.348 120.461 284.449 121.133 284.652 121.72C284.865 122.296 285.18 122.749 285.596 123.08C286.012 123.4 286.529 123.56 287.148 123.56ZM292.989 125C293.671 124.339 294.322 123.688 294.941 123.048C295.559 122.408 296.114 121.789 296.605 121.192C297.106 120.595 297.501 120.019 297.789 119.464C298.077 118.899 298.221 118.355 298.221 117.832C298.221 117.48 298.162 117.181 298.045 116.936C297.927 116.68 297.773 116.472 297.581 116.312C297.399 116.152 297.191 116.035 296.957 115.96C296.722 115.875 296.482 115.832 296.237 115.832C295.885 115.832 295.586 115.891 295.341 116.008C295.095 116.115 294.893 116.259 294.733 116.44C294.583 116.621 294.471 116.813 294.397 117.016C294.333 117.219 294.301 117.421 294.301 117.624C294.301 117.976 294.354 118.296 294.461 118.584C294.567 118.861 294.722 119.107 294.925 119.32L293.965 120.168C293.719 120.008 293.506 119.784 293.325 119.496C293.154 119.208 293.021 118.899 292.925 118.568C292.839 118.227 292.797 117.923 292.797 117.656C292.797 117.08 292.935 116.541 293.213 116.04C293.501 115.528 293.917 115.117 294.461 114.808C295.015 114.499 295.687 114.344 296.477 114.344C297.149 114.344 297.735 114.499 298.237 114.808C298.738 115.117 299.127 115.528 299.405 116.04C299.682 116.541 299.821 117.096 299.821 117.704C299.821 118.237 299.714 118.76 299.501 119.272C299.287 119.784 298.999 120.291 298.637 120.792C298.285 121.293 297.89 121.789 297.453 122.28C297.026 122.76 296.599 123.245 296.173 123.736L295.501 123.512H300.173V125H292.989ZM304.779 125.128C304.214 125.128 303.67 125.027 303.147 124.824C302.635 124.621 302.219 124.36 301.899 124.04L302.731 122.84C302.945 123.085 303.227 123.283 303.579 123.432C303.942 123.581 304.299 123.656 304.651 123.656C305.046 123.656 305.393 123.571 305.691 123.4C306.001 123.219 306.241 122.979 306.411 122.68C306.582 122.371 306.667 122.019 306.667 121.624C306.667 121.197 306.587 120.819 306.427 120.488C306.278 120.157 306.049 119.901 305.739 119.72C305.441 119.528 305.062 119.432 304.603 119.432C304.23 119.432 303.883 119.485 303.563 119.592C303.243 119.688 302.913 119.837 302.571 120.04H302.555V114.472H307.595V115.96H303.899V118.648L303.691 118.328C303.873 118.264 304.075 118.216 304.299 118.184C304.534 118.141 304.758 118.12 304.971 118.12C305.686 118.12 306.283 118.28 306.763 118.6C307.254 118.909 307.622 119.325 307.867 119.848C308.123 120.371 308.251 120.947 308.251 121.576C308.251 122.237 308.102 122.84 307.803 123.384C307.505 123.917 307.094 124.344 306.571 124.664C306.049 124.973 305.451 125.128 304.779 125.128Z"
                        fill="white" />
                </g>
                <g filter="url(#filter1_d_2_6)">
                    <path
                        d="M143.296 76.616H144.784V89H143.296V76.616ZM146.783 85.624C146.783 84.9627 146.937 84.3653 147.247 83.832C147.567 83.2987 148.004 82.8773 148.559 82.568C149.113 82.2587 149.743 82.104 150.447 82.104C151.172 82.104 151.807 82.2587 152.351 82.568C152.895 82.8773 153.316 83.2987 153.615 83.832C153.913 84.3653 154.062 84.9627 154.062 85.624C154.062 86.2853 153.913 86.888 153.615 87.432C153.316 87.9653 152.889 88.3867 152.335 88.696C151.791 89.0053 151.156 89.16 150.431 89.16C149.727 89.16 149.097 89.016 148.543 88.728C147.999 88.4293 147.567 88.0187 147.247 87.496C146.937 86.9627 146.783 86.3387 146.783 85.624ZM148.271 85.64C148.271 86.0667 148.367 86.456 148.559 86.808C148.751 87.1493 149.007 87.4213 149.327 87.624C149.657 87.8267 150.02 87.928 150.415 87.928C150.831 87.928 151.199 87.8267 151.519 87.624C151.849 87.4213 152.105 87.1493 152.287 86.808C152.468 86.456 152.559 86.0667 152.559 85.64C152.559 85.2133 152.468 84.8293 152.287 84.488C152.105 84.136 151.849 83.8587 151.519 83.656C151.199 83.4427 150.831 83.336 150.415 83.336C150.009 83.336 149.641 83.4427 149.311 83.656C148.991 83.8693 148.735 84.152 148.543 84.504C148.361 84.8453 148.271 85.224 148.271 85.64ZM158.562 89.192L154.882 82.376H156.642L159.138 87.64L158.226 87.608L160.514 82.376H162.178L158.642 89.192H158.562ZM166.696 89.16C165.939 89.16 165.288 89.0107 164.744 88.712C164.2 88.4027 163.779 87.9867 163.48 87.464C163.192 86.9307 163.048 86.3227 163.048 85.64C163.048 84.9893 163.213 84.3973 163.544 83.864C163.875 83.3307 164.317 82.904 164.872 82.584C165.427 82.264 166.045 82.104 166.728 82.104C167.603 82.104 168.328 82.36 168.904 82.872C169.48 83.384 169.869 84.088 170.072 84.984L164.616 86.904L164.264 86.024L168.744 84.392L168.424 84.6C168.296 84.248 168.083 83.944 167.784 83.688C167.485 83.4213 167.096 83.288 166.616 83.288C166.211 83.288 165.848 83.3893 165.528 83.592C165.208 83.784 164.957 84.0507 164.776 84.392C164.595 84.7333 164.504 85.1227 164.504 85.56C164.504 86.0187 164.6 86.424 164.792 86.776C164.984 87.1173 165.245 87.3893 165.576 87.592C165.917 87.784 166.301 87.88 166.728 87.88C167.016 87.88 167.293 87.8267 167.56 87.72C167.837 87.6133 168.093 87.4747 168.328 87.304L169.016 88.408C168.685 88.632 168.312 88.8133 167.896 88.952C167.491 89.0907 167.091 89.16 166.696 89.16ZM177.559 92.184L181.927 82.376H183.303L179.031 92.184H177.559ZM179.191 89.048L176.007 82.376H177.687L180.359 88.296L179.191 89.048ZM184.126 85.624C184.126 84.9627 184.281 84.3653 184.59 83.832C184.91 83.2987 185.348 82.8773 185.902 82.568C186.457 82.2587 187.086 82.104 187.79 82.104C188.516 82.104 189.15 82.2587 189.694 82.568C190.238 82.8773 190.66 83.2987 190.958 83.832C191.257 84.3653 191.406 84.9627 191.406 85.624C191.406 86.2853 191.257 86.888 190.958 87.432C190.66 87.9653 190.233 88.3867 189.678 88.696C189.134 89.0053 188.5 89.16 187.774 89.16C187.07 89.16 186.441 89.016 185.886 88.728C185.342 88.4293 184.91 88.0187 184.59 87.496C184.281 86.9627 184.126 86.3387 184.126 85.624ZM185.614 85.64C185.614 86.0667 185.71 86.456 185.902 86.808C186.094 87.1493 186.35 87.4213 186.67 87.624C187.001 87.8267 187.364 87.928 187.758 87.928C188.174 87.928 188.542 87.8267 188.862 87.624C189.193 87.4213 189.449 87.1493 189.63 86.808C189.812 86.456 189.902 86.0667 189.902 85.64C189.902 85.2133 189.812 84.8293 189.63 84.488C189.449 84.136 189.193 83.8587 188.862 83.656C188.542 83.4427 188.174 83.336 187.758 83.336C187.353 83.336 186.985 83.4427 186.654 83.656C186.334 83.8693 186.078 84.152 185.886 84.504C185.705 84.8453 185.614 85.224 185.614 85.64ZM195.517 89.256C194.92 89.256 194.424 89.0747 194.029 88.712C193.645 88.3387 193.442 87.8587 193.421 87.272V82.376H194.909V86.744C194.93 87.1067 195.032 87.4 195.213 87.624C195.405 87.848 195.704 87.9653 196.109 87.976C196.482 87.976 196.813 87.8693 197.101 87.656C197.4 87.432 197.64 87.1333 197.821 86.76C198.002 86.376 198.093 85.944 198.093 85.464V82.376H199.581V89H198.221L198.093 87.368L198.173 87.656C198.045 87.9653 197.848 88.2427 197.581 88.488C197.325 88.7227 197.021 88.9093 196.669 89.048C196.317 89.1867 195.933 89.256 195.517 89.256ZM203.483 82.376L203.627 84.296L203.547 84.04C203.718 83.6347 203.963 83.2933 204.283 83.016C204.614 82.728 204.955 82.5093 205.307 82.36C205.67 82.2 205.985 82.12 206.251 82.12L206.171 83.592C205.67 83.56 205.227 83.656 204.843 83.88C204.47 84.104 204.171 84.4027 203.947 84.776C203.734 85.1493 203.627 85.5493 203.627 85.976V89H202.155V82.376H203.483ZM210.027 89.128C209.558 89.128 209.099 89.048 208.651 88.888C208.214 88.7173 207.851 88.4667 207.563 88.136L208.187 87.272C208.464 87.5387 208.747 87.7413 209.035 87.88C209.334 88.008 209.627 88.072 209.915 88.072C210.128 88.072 210.326 88.0453 210.507 87.992C210.688 87.9387 210.832 87.8533 210.939 87.736C211.056 87.608 211.115 87.4373 211.115 87.224C211.115 86.9893 211.035 86.8027 210.875 86.664C210.726 86.5253 210.528 86.4133 210.283 86.328C210.048 86.2427 209.798 86.1627 209.531 86.088C208.987 85.9067 208.571 85.656 208.283 85.336C207.995 85.016 207.851 84.6267 207.851 84.168C207.851 83.816 207.936 83.4907 208.107 83.192C208.288 82.8827 208.55 82.632 208.891 82.44C209.243 82.248 209.675 82.152 210.187 82.152C210.646 82.152 211.056 82.2107 211.419 82.328C211.782 82.4347 212.123 82.616 212.443 82.872L211.851 83.8C211.659 83.5973 211.43 83.448 211.163 83.352C210.896 83.256 210.656 83.2027 210.443 83.192C210.262 83.1813 210.086 83.208 209.915 83.272C209.755 83.336 209.622 83.4267 209.515 83.544C209.408 83.6613 209.355 83.8 209.355 83.96C209.355 84.184 209.43 84.3653 209.579 84.504C209.728 84.6427 209.92 84.7547 210.155 84.84C210.4 84.9147 210.64 84.9947 210.875 85.08C211.206 85.176 211.499 85.304 211.755 85.464C212.011 85.624 212.214 85.8213 212.363 86.056C212.523 86.2907 212.603 86.584 212.603 86.936C212.603 87.3307 212.507 87.6987 212.315 88.04C212.134 88.3707 211.851 88.6373 211.467 88.84C211.094 89.032 210.614 89.128 210.027 89.128ZM217.759 89.16C217.001 89.16 216.351 89.0107 215.807 88.712C215.263 88.4027 214.841 87.9867 214.543 87.464C214.255 86.9307 214.111 86.3227 214.111 85.64C214.111 84.9893 214.276 84.3973 214.607 83.864C214.937 83.3307 215.38 82.904 215.935 82.584C216.489 82.264 217.108 82.104 217.791 82.104C218.665 82.104 219.391 82.36 219.967 82.872C220.543 83.384 220.932 84.088 221.135 84.984L215.679 86.904L215.327 86.024L219.807 84.392L219.487 84.6C219.359 84.248 219.145 83.944 218.847 83.688C218.548 83.4213 218.159 83.288 217.679 83.288C217.273 83.288 216.911 83.3893 216.591 83.592C216.271 83.784 216.02 84.0507 215.839 84.392C215.657 84.7333 215.567 85.1227 215.567 85.56C215.567 86.0187 215.663 86.424 215.855 86.776C216.047 87.1173 216.308 87.3893 216.639 87.592C216.98 87.784 217.364 87.88 217.791 87.88C218.079 87.88 218.356 87.8267 218.623 87.72C218.9 87.6133 219.156 87.4747 219.391 87.304L220.079 88.408C219.748 88.632 219.375 88.8133 218.959 88.952C218.553 89.0907 218.153 89.16 217.759 89.16ZM222.999 76.616H224.487V89H222.999V76.616ZM227.606 89V83.704H226.47V82.376H227.606V79.576C227.606 78.616 227.819 77.88 228.246 77.368C228.683 76.856 229.323 76.6 230.166 76.6C230.39 76.6 230.635 76.632 230.902 76.696C231.179 76.76 231.419 76.8667 231.622 77.016L230.998 78.088C230.902 77.992 230.795 77.928 230.678 77.896C230.56 77.8533 230.443 77.832 230.326 77.832C229.931 77.832 229.627 77.9653 229.414 78.232C229.2 78.4987 229.094 78.952 229.094 79.592V82.376H231.19V83.704H229.094V89H227.606ZM240.939 89.16C240.32 89.16 239.755 89.0267 239.243 88.76C238.741 88.4933 238.341 88.104 238.043 87.592C237.755 87.0693 237.611 86.4347 237.611 85.688C237.611 84.952 237.765 84.3173 238.075 83.784C238.384 83.24 238.795 82.824 239.307 82.536C239.829 82.248 240.4 82.104 241.019 82.104C241.637 82.104 242.16 82.248 242.587 82.536C243.013 82.8133 243.339 83.144 243.563 83.528L243.467 83.784L243.611 82.376H244.987V89H243.499V87.272L243.659 87.656C243.616 87.7627 243.52 87.9013 243.371 88.072C243.232 88.232 243.04 88.3973 242.795 88.568C242.56 88.7387 242.288 88.8827 241.979 89C241.669 89.1067 241.323 89.16 240.939 89.16ZM241.339 87.928C241.712 87.928 242.048 87.8587 242.347 87.72C242.645 87.5813 242.891 87.3893 243.083 87.144C243.285 86.888 243.424 86.584 243.499 86.232V84.936C243.413 84.616 243.264 84.3387 243.051 84.104C242.837 83.8587 242.581 83.672 242.283 83.544C241.984 83.4053 241.653 83.336 241.291 83.336C240.896 83.336 240.533 83.432 240.203 83.624C239.872 83.816 239.605 84.0827 239.403 84.424C239.211 84.7653 239.115 85.1653 239.115 85.624C239.115 86.0507 239.216 86.44 239.419 86.792C239.621 87.144 239.893 87.4213 240.235 87.624C240.576 87.8267 240.944 87.928 241.339 87.928ZM249.418 89.128C248.948 89.128 248.49 89.048 248.042 88.888C247.604 88.7173 247.242 88.4667 246.954 88.136L247.578 87.272C247.855 87.5387 248.138 87.7413 248.426 87.88C248.724 88.008 249.018 88.072 249.306 88.072C249.519 88.072 249.716 88.0453 249.898 87.992C250.079 87.9387 250.223 87.8533 250.33 87.736C250.447 87.608 250.506 87.4373 250.506 87.224C250.506 86.9893 250.426 86.8027 250.266 86.664C250.116 86.5253 249.919 86.4133 249.674 86.328C249.439 86.2427 249.188 86.1627 248.922 86.088C248.378 85.9067 247.962 85.656 247.674 85.336C247.386 85.016 247.242 84.6267 247.242 84.168C247.242 83.816 247.327 83.4907 247.498 83.192C247.679 82.8827 247.94 82.632 248.282 82.44C248.634 82.248 249.066 82.152 249.578 82.152C250.036 82.152 250.447 82.2107 250.81 82.328C251.172 82.4347 251.514 82.616 251.834 82.872L251.242 83.8C251.05 83.5973 250.82 83.448 250.554 83.352C250.287 83.256 250.047 83.2027 249.834 83.192C249.652 83.1813 249.476 83.208 249.306 83.272C249.146 83.336 249.012 83.4267 248.906 83.544C248.799 83.6613 248.746 83.8 248.746 83.96C248.746 84.184 248.82 84.3653 248.97 84.504C249.119 84.6427 249.311 84.7547 249.546 84.84C249.791 84.9147 250.031 84.9947 250.266 85.08C250.596 85.176 250.89 85.304 251.146 85.464C251.402 85.624 251.604 85.8213 251.754 86.056C251.914 86.2907 251.994 86.584 251.994 86.936C251.994 87.3307 251.898 87.6987 251.706 88.04C251.524 88.3707 251.242 88.6373 250.858 88.84C250.484 89.032 250.004 89.128 249.418 89.128ZM263.38 82.376L265.332 86.84L265.044 86.872L266.868 82.376H268.324L265.284 89.4L263.156 84.856L261.22 89.4L258.148 82.376H259.604L261.668 87.048L261.156 86.952L262.628 83.528L262.1 82.376H263.38ZM272.837 89.16C272.079 89.16 271.429 89.0107 270.885 88.712C270.341 88.4027 269.919 87.9867 269.621 87.464C269.333 86.9307 269.189 86.3227 269.189 85.64C269.189 84.9893 269.354 84.3973 269.685 83.864C270.015 83.3307 270.458 82.904 271.013 82.584C271.567 82.264 272.186 82.104 272.869 82.104C273.743 82.104 274.469 82.36 275.045 82.872C275.621 83.384 276.01 84.088 276.213 84.984L270.757 86.904L270.405 86.024L274.885 84.392L274.565 84.6C274.437 84.248 274.223 83.944 273.925 83.688C273.626 83.4213 273.237 83.288 272.757 83.288C272.351 83.288 271.989 83.3893 271.669 83.592C271.349 83.784 271.098 84.0507 270.917 84.392C270.735 84.7333 270.645 85.1227 270.645 85.56C270.645 86.0187 270.741 86.424 270.933 86.776C271.125 87.1173 271.386 87.3893 271.717 87.592C272.058 87.784 272.442 87.88 272.869 87.88C273.157 87.88 273.434 87.8267 273.701 87.72C273.978 87.6133 274.234 87.4747 274.469 87.304L275.157 88.408C274.826 88.632 274.453 88.8133 274.037 88.952C273.631 89.0907 273.231 89.16 272.837 89.16ZM283.14 76.616H284.628V89H283.14V76.616ZM286.626 85.624C286.626 84.9627 286.781 84.3653 287.09 83.832C287.41 83.2987 287.848 82.8773 288.402 82.568C288.957 82.2587 289.586 82.104 290.29 82.104C291.016 82.104 291.65 82.2587 292.194 82.568C292.738 82.8773 293.16 83.2987 293.458 83.832C293.757 84.3653 293.906 84.9627 293.906 85.624C293.906 86.2853 293.757 86.888 293.458 87.432C293.16 87.9653 292.733 88.3867 292.178 88.696C291.634 89.0053 291 89.16 290.274 89.16C289.57 89.16 288.941 89.016 288.386 88.728C287.842 88.4293 287.41 88.0187 287.09 87.496C286.781 86.9627 286.626 86.3387 286.626 85.624ZM288.114 85.64C288.114 86.0667 288.21 86.456 288.402 86.808C288.594 87.1493 288.85 87.4213 289.17 87.624C289.501 87.8267 289.864 87.928 290.258 87.928C290.674 87.928 291.042 87.8267 291.362 87.624C291.693 87.4213 291.949 87.1493 292.13 86.808C292.312 86.456 292.402 86.0667 292.402 85.64C292.402 85.2133 292.312 84.8293 292.13 84.488C291.949 84.136 291.693 83.8587 291.362 83.656C291.042 83.4427 290.674 83.336 290.258 83.336C289.853 83.336 289.485 83.4427 289.154 83.656C288.834 83.8693 288.578 84.152 288.386 84.504C288.205 84.8453 288.114 85.224 288.114 85.64ZM298.406 89.192L294.726 82.376H296.486L298.982 87.64L298.07 87.608L300.358 82.376H302.022L298.486 89.192H298.406ZM306.54 89.16C305.783 89.16 305.132 89.0107 304.588 88.712C304.044 88.4027 303.623 87.9867 303.324 87.464C303.036 86.9307 302.892 86.3227 302.892 85.64C302.892 84.9893 303.057 84.3973 303.388 83.864C303.719 83.3307 304.161 82.904 304.716 82.584C305.271 82.264 305.889 82.104 306.572 82.104C307.447 82.104 308.172 82.36 308.748 82.872C309.324 83.384 309.713 84.088 309.916 84.984L304.46 86.904L304.108 86.024L308.588 84.392L308.268 84.6C308.14 84.248 307.927 83.944 307.628 83.688C307.329 83.4213 306.94 83.288 306.46 83.288C306.055 83.288 305.692 83.3893 305.372 83.592C305.052 83.784 304.801 84.0507 304.62 84.392C304.439 84.7333 304.348 85.1227 304.348 85.56C304.348 86.0187 304.444 86.424 304.636 86.776C304.828 87.1173 305.089 87.3893 305.42 87.592C305.761 87.784 306.145 87.88 306.572 87.88C306.86 87.88 307.137 87.8267 307.404 87.72C307.681 87.6133 307.937 87.4747 308.172 87.304L308.86 88.408C308.529 88.632 308.156 88.8133 307.74 88.952C307.335 89.0907 306.935 89.16 306.54 89.16ZM317.403 92.184L321.771 82.376H323.147L318.875 92.184H317.403ZM319.035 89.048L315.851 82.376H317.531L320.203 88.296L319.035 89.048ZM323.97 85.624C323.97 84.9627 324.125 84.3653 324.434 83.832C324.754 83.2987 325.191 82.8773 325.746 82.568C326.301 82.2587 326.93 82.104 327.634 82.104C328.359 82.104 328.994 82.2587 329.538 82.568C330.082 82.8773 330.503 83.2987 330.802 83.832C331.101 84.3653 331.25 84.9627 331.25 85.624C331.25 86.2853 331.101 86.888 330.802 87.432C330.503 87.9653 330.077 88.3867 329.522 88.696C328.978 89.0053 328.343 89.16 327.618 89.16C326.914 89.16 326.285 89.016 325.73 88.728C325.186 88.4293 324.754 88.0187 324.434 87.496C324.125 86.9627 323.97 86.3387 323.97 85.624ZM325.458 85.64C325.458 86.0667 325.554 86.456 325.746 86.808C325.938 87.1493 326.194 87.4213 326.514 87.624C326.845 87.8267 327.207 87.928 327.602 87.928C328.018 87.928 328.386 87.8267 328.706 87.624C329.037 87.4213 329.293 87.1493 329.474 86.808C329.655 86.456 329.746 86.0667 329.746 85.64C329.746 85.2133 329.655 84.8293 329.474 84.488C329.293 84.136 329.037 83.8587 328.706 83.656C328.386 83.4427 328.018 83.336 327.602 83.336C327.197 83.336 326.829 83.4427 326.498 83.656C326.178 83.8693 325.922 84.152 325.73 84.504C325.549 84.8453 325.458 85.224 325.458 85.64ZM335.361 89.256C334.763 89.256 334.267 89.0747 333.873 88.712C333.489 88.3387 333.286 87.8587 333.265 87.272V82.376H334.753V86.744C334.774 87.1067 334.875 87.4 335.057 87.624C335.249 87.848 335.547 87.9653 335.953 87.976C336.326 87.976 336.657 87.8693 336.945 87.656C337.243 87.432 337.483 87.1333 337.665 86.76C337.846 86.376 337.937 85.944 337.937 85.464V82.376H339.425V89H338.065L337.937 87.368L338.017 87.656C337.889 87.9653 337.691 88.2427 337.425 88.488C337.169 88.7227 336.865 88.9093 336.513 89.048C336.161 89.1867 335.777 89.256 335.361 89.256Z"
                        fill="white" />
                </g>
                <defs>
                    <filter id="filter0_d_2_6" x="171.328" y="112.616" width="140.923" height="20.544"
                        filterUnits="userSpaceOnUse" color-interpolation-filters="sRGB">
                        <feFlood flood-opacity="0" result="BackgroundImageFix" />
                        <feColorMatrix in="SourceAlpha" type="matrix" values="0 0 0 0 0 0 0 0 0 0 0 0 0 0 0 0 0 0 127 0"
                            result="hardAlpha" />
                        <feOffset dy="4" />
                        <feGaussianBlur stdDeviation="2" />
                        <feComposite in2="hardAlpha" operator="out" />
                        <feColorMatrix type="matrix" values="0 0 0 0 0 0 0 0 0 0 0 0 0 0 0 0 0 0 0.25 0" />
                        <feBlend mode="normal" in2="BackgroundImageFix" result="effect1_dropShadow_2_6" />
                        <feBlend mode="normal" in="SourceGraphic" in2="effect1_dropShadow_2_6" result="shape" />
                    </filter>
                    <filter id="filter1_d_2_6" x="139.296" y="76.6" width="204.129" height="23.584"
                        filterUnits="userSpaceOnUse" color-interpolation-filters="sRGB">
                        <feFlood flood-opacity="0" result="BackgroundImageFix" />
                        <feColorMatrix in="SourceAlpha" type="matrix" values="0 0 0 0 0 0 0 0 0 0 0 0 0 0 0 0 0 0 127 0"
                            result="hardAlpha" />
                        <feOffset dy="4" />
                        <feGaussianBlur stdDeviation="2" />
                        <feComposite in2="hardAlpha" operator="out" />
                        <feColorMatrix type="matrix" values="0 0 0 0 0 0 0 0 0 0 0 0 0 0 0 0 0 0 0.25 0" />
                        <feBlend mode="normal" in2="BackgroundImageFix" result="effect1_dropShadow_2_6" />
                        <feBlend mode="normal" in="SourceGraphic" in2="effect1_dropShadow_2_6" result="shape" />
                    </filter>
                    <linearGradient id="paint0_linear_2_6" x1="403.737" y1="53.6344" x2="159.47" y2="103.93"
                        gradientUnits="userSpaceOnUse">
                        <stop stop-color="#467471" />
                        <stop offset="1" stop-color="#616340" />
                    </linearGradient>
                    <linearGradient id="paint1_linear_2_6" x1="80.3304" y1="25.8189" x2="328.379" y2="66.8501"
                        gradientUnits="userSpaceOnUse">
                        <stop stop-color="#467471" />
                        <stop offset="1" stop-color="#91944D" />
                    </linearGradient>
                </defs>
            </svg>